<?xml version="1.0" encoding="UTF-8"?>
<svg id="Calque_1" data-name="Calque 1" xmlns="http://www.w3.org/2000/svg" xmlns:xlink="http://www.w3.org/1999/xlink" viewBox="0 0 189.4 98.43">
  <defs>
    <style>
      .cls-1 {
        fill: #f7942f;
      }

      .cls-1, .cls-2, .cls-3 {
        fill-rule: evenodd;
      }

      .cls-4 {
        fill: #fff;
      }

      .cls-5 {
        fill: #54b6e7;
        font-family: ComicSansMS, 'Comic Sans MS';
        font-size: 28.5px;
        isolation: isolate;
      }

      .cls-6 {
        clip-path: url(#clippath);
      }

      .cls-7 {
        fill: none;
      }

      .cls-2 {
        fill: #ee3b95;
      }

      .cls-3 {
        fill: #7bc24b;
      }
    </style>
    <clipPath id="clippath">
      <rect class="cls-7" x="24.4" y="10.6" width="141.3" height="79"/>
    </clipPath>
  </defs>
  <rect class="cls-4" y="3.6" width="189.4" height="91.4"/>
  <rect class="cls-4" width="189.4" height="95"/>
  <path class="cls-2" d="m63.5,60.8c-2-6.4-3.3-14.5-2.7-20.3,1.5-17-10.2-22.8-9.7-6.9.3,9.4-1.8,19.9-8.9,25.5s-17.8,5.2-26.9,2.7C0,57.6,2.8,70.4,19.8,72.9c4.5.7,10.3,2.8,15.2,5.2,6.7-8.5,28.5-17.3,28.5-17.3h0Zm-39.8-25c5.8-4.5,14.2-3.6,18.7,2.2,4.6,5.8,3.6,14.2-2.2,18.7-5.8,4.6-14.2,3.6-18.7-2.2-4.6-5.7-3.6-14.1,2.2-18.7Z"/>
  <path class="cls-1" d="m127.5,60.8c1.9-6.4,3.3-14.5,2.7-20.3-1.5-17,10.3-22.8,9.7-6.9-.3,9.4,1.8,19.9,8.9,25.5s17.8,5.2,26.9,2.7c15.3-4.2,12.5,8.6-4.5,11.1-4.5.7-10.3,2.8-15.2,5.2-6.7-8.5-28.5-17.3-28.5-17.3h0Zm39.8-25c-5.8-4.5-14.2-3.6-18.7,2.2s-3.6,14.2,2.2,18.7c5.8,4.6,14.2,3.6,18.7-2.2,4.6-5.7,3.6-14.1-2.2-18.7Z"/>
  <g class="cls-6">
    <path class="cls-3" d="m95.5,40.2c9.1,0,17.2-7,22.8-14.5,9.4-12.8,15.1-1,3.3,11.5-4.5,4.8-9,12.5-11.3,19.4,5.9.8,11.9,2.1,17.5,4,0,0,21.8,8.8,28.6,17.3,3.4,3.4,6.4,7.4,8.9,11.8-20.3-23.3-39.6-29.8-69.9-30.7-30.3.8-49.6,7.4-69.9,30.7,2.5-4.4,5.5-8.3,8.9-11.8,6.9-8.5,28.6-17.3,28.6-17.3,5.7-1.9,11.6-3.2,17.6-4-2.3-6.9-6.8-14.6-11.3-19.4-11.7-12.5-6-24.3,3.3-11.5,5.7,7.5,13.8,14.5,22.9,14.5Zm0-29.6c-7.4,0-13.3,6-13.3,13.3s6,13.3,13.3,13.3,13.3-6,13.3-13.3-5.9-13.3-13.3-13.3Z"/>
  </g>
  <text class="cls-5" transform="translate(51.77 89.54) scale(1.3 1)"><tspan x="0" y="0">MDE</tspan></text>
</svg>